<?xml version="1.0" encoding="UTF-8" standalone="no"?>
<svg
   xmlns:dc="http://purl.org/dc/elements/1.1/"
   xmlns:cc="http://creativecommons.org/ns#"
   xmlns:rdf="http://www.w3.org/1999/02/22-rdf-syntax-ns#"
   xmlns:svg="http://www.w3.org/2000/svg"
   xmlns="http://www.w3.org/2000/svg"
   id="svg4095"
   version="1.1"
   viewBox="0 0 10.186459 9.3277425"
   height="9.3277426mm"
   width="10.186459mm">
  <defs
     id="defs4089" />
  <metadata
     id="metadata4092">
    <rdf:RDF>
      <cc:Work
         rdf:about="">
        <dc:format>image/svg+xml</dc:format>
        <dc:type
           rdf:resource="http://purl.org/dc/dcmitype/StillImage" />
        <dc:title></dc:title>
      </cc:Work>
    </rdf:RDF>
  </metadata>
  <g
     transform="translate(-112.03824,-77.899837)"
     id="layer1">
    <g
       id="g3927"
       transform="matrix(0.26458333,0,0,0.26458333,111.17834,76.643066)"
       style="opacity:1;fill:#ffffff;fill-opacity:1;fill-rule:evenodd;stroke:#000000;stroke-width:1.5;stroke-linecap:round;stroke-linejoin:round;stroke-miterlimit:4;stroke-dasharray:none;stroke-opacity:1">
      <path
         id="path3909"
         transform="translate(-1,-1)"
         d="m 9,13 a 2,2 0 1 1 -4,0 2,2 0 1 1 4,0 z" />
      <path
         id="path3911"
         transform="translate(15.5,-5.5)"
         d="m 9,13 a 2,2 0 1 1 -4,0 2,2 0 1 1 4,0 z" />
      <path
         id="path3913"
         transform="translate(32,-1)"
         d="m 9,13 a 2,2 0 1 1 -4,0 2,2 0 1 1 4,0 z" />
      <path
         id="path3915"
         transform="translate(7,-4.5)"
         d="m 9,13 a 2,2 0 1 1 -4,0 2,2 0 1 1 4,0 z" />
      <path
         id="path3917"
         transform="translate(24,-4)"
         d="m 9,13 a 2,2 0 1 1 -4,0 2,2 0 1 1 4,0 z" />
      <path
         id="path3919"
         style="stroke-linecap:butt"
         d="m 9,26 c 8.5,-1.5 21,-1.5 27,0 L 38,14 31,25 V 11 l -5.5,13.5 -3,-15 -3,15 -5.5,-14 V 25 L 7,14 Z" />
      <path
         id="path3921"
         style="stroke-linecap:butt"
         d="m 9,26 c 0,2 1.5,2 2.5,4 1,1.5 1,1 0.5,3.5 -1.5,1 -1.5,2.5 -1.5,2.5 -1.5,1.5 0.5,2.5 0.5,2.5 6.5,1 16.5,1 23,0 0,0 1.5,-1 0,-2.5 0,0 0.5,-1.5 -1,-2.5 -0.5,-2.5 -0.5,-2 0.5,-3.5 1,-2 2.5,-2 2.5,-4 -8.5,-1.5 -18.5,-1.5 -27,0 z" />
      <path
         id="path3923"
         style="fill:none"
         d="M 11.5,30 C 15,29 30,29 33.5,30" />
      <path
         id="path3925"
         style="fill:none"
         d="m 12,33.5 c 6,-1 15,-1 21,0" />
    </g>
  </g>
</svg>
