<?xml version="1.0" encoding="UTF-8" standalone="no"?>
<!-- Created with Inkscape (http://www.inkscape.org/) -->

<svg
   xmlns:dc="http://purl.org/dc/elements/1.1/"
   xmlns:cc="http://creativecommons.org/ns#"
   xmlns:rdf="http://www.w3.org/1999/02/22-rdf-syntax-ns#"
   xmlns:svg="http://www.w3.org/2000/svg"
   xmlns="http://www.w3.org/2000/svg"
   xmlns:sodipodi="http://sodipodi.sourceforge.net/DTD/sodipodi-0.dtd"
   xmlns:inkscape="http://www.inkscape.org/namespaces/inkscape"
   width="9.200984mm"
   height="9.2963161mm"
   viewBox="0 0 9.200984 9.2963161"
   version="1.1"
   id="svg4095"
   inkscape:version="0.92.4 (5da689c313, 2019-01-14)"
   sodipodi:docname="ckrolowa.svg">
  <defs
     id="defs4089" />
  <sodipodi:namedview
     id="base"
     pagecolor="#ffffff"
     bordercolor="#666666"
     borderopacity="1.0"
     inkscape:pageopacity="0.0"
     inkscape:pageshadow="2"
     inkscape:zoom="11.2"
     inkscape:cx="23.597774"
     inkscape:cy="16.318398"
     inkscape:document-units="mm"
     inkscape:current-layer="layer1"
     showgrid="false"
     inkscape:window-width="1280"
     inkscape:window-height="961"
     inkscape:window-x="-8"
     inkscape:window-y="-8"
     inkscape:window-maximized="1" />
  <metadata
     id="metadata4092">
    <rdf:RDF>
      <cc:Work
         rdf:about="">
        <dc:format>image/svg+xml</dc:format>
        <dc:type
           rdf:resource="http://purl.org/dc/dcmitype/StillImage" />
        <dc:title></dc:title>
      </cc:Work>
    </rdf:RDF>
  </metadata>
  <g
     inkscape:label="Layer 1"
     inkscape:groupmode="layer"
     id="layer1"
     transform="translate(-113.32808,-77.661366)">
    <g
       transform="matrix(0.26458333,0,0,0.26458333,111.98376,76.27513)"
       style="fill:none;fill-opacity:1;fill-rule:evenodd;stroke:#000000;stroke-width:1.5;stroke-linecap:round;stroke-linejoin:round;stroke-miterlimit:4;stroke-dasharray:none;stroke-opacity:1"
       id="g3907">
      <path
         inkscape:connector-curvature="0"
         d="M 22.5,11.63 V 6"
         style="fill:none;stroke:#000000;stroke-linejoin:miter"
         id="path3893" />
      <path
         inkscape:connector-curvature="0"
         d="m 20,8 h 5"
         style="fill:none;stroke:#000000;stroke-linejoin:miter"
         id="path3895" />
      <path
         inkscape:connector-curvature="0"
         d="m 22.5,25 c 0,0 4.5,-7.5 3,-10.5 0,0 -1,-2.5 -3,-2.5 -2,0 -3,2.5 -3,2.5 -1.5,3 3,10.5 3,10.5"
         style="fill:#ffffff;stroke:#000000;stroke-linecap:butt;stroke-linejoin:miter"
         id="path3897" />
      <path
         inkscape:connector-curvature="0"
         d="m 11.5,37 c 5.5,3.5 15.5,3.5 21,0 v -7 c 0,0 9,-4.5 6,-10.5 -4,-6.5 -13.5,-3.5 -16,4 V 27 23.5 C 19,16 9.5,13 6.5,19.5 c -3,6 5,10 5,10 z"
         style="fill:#ffffff;stroke:#000000"
         id="path3899" />
      <path
         inkscape:connector-curvature="0"
         d="M 11.5,30 C 17,27 27,27 32.5,30"
         style="fill:none;stroke:#000000"
         id="path3901" />
      <path
         inkscape:connector-curvature="0"
         d="m 11.5,33.5 c 5.5,-3 15.5,-3 21,0"
         style="fill:none;stroke:#000000"
         id="path3903" />
      <path
         inkscape:connector-curvature="0"
         d="M 11.5,37 C 17,34 27,34 32.5,37"
         style="fill:none;stroke:#000000"
         id="path3905" />
    </g>
  </g>
</svg>
