<?xml version="1.0" encoding="UTF-8" standalone="no"?>
<!-- Created with Inkscape (http://www.inkscape.org/) -->

<svg
   xmlns:dc="http://purl.org/dc/elements/1.1/"
   xmlns:cc="http://creativecommons.org/ns#"
   xmlns:rdf="http://www.w3.org/1999/02/22-rdf-syntax-ns#"
   xmlns:svg="http://www.w3.org/2000/svg"
   xmlns="http://www.w3.org/2000/svg"
   xmlns:sodipodi="http://sodipodi.sourceforge.net/DTD/sodipodi-0.dtd"
   xmlns:inkscape="http://www.inkscape.org/namespaces/inkscape"
   width="6.4822917mm"
   height="8.4666662mm"
   viewBox="0 0 6.482292 8.4666661"
   version="1.1"
   id="svg4095"
   sodipodi:docname="cpionek.svg"
   inkscape:version="0.92.4 (5da689c313, 2019-01-14)">
  <defs
     id="defs4089" />
  <sodipodi:namedview
     id="base"
     pagecolor="#ffffff"
     bordercolor="#666666"
     borderopacity="1.0"
     inkscape:pageopacity="0.0"
     inkscape:pageshadow="2"
     inkscape:zoom="11.2"
     inkscape:cx="23.514683"
     inkscape:cy="18.122786"
     inkscape:document-units="mm"
     inkscape:current-layer="layer1"
     showgrid="false"
     inkscape:window-width="1280"
     inkscape:window-height="961"
     inkscape:window-x="-8"
     inkscape:window-y="-8"
     inkscape:window-maximized="1" />
  <metadata
     id="metadata4092">
    <rdf:RDF>
      <cc:Work
         rdf:about="">
        <dc:format>image/svg+xml</dc:format>
        <dc:type
           rdf:resource="http://purl.org/dc/dcmitype/StillImage" />
        <dc:title></dc:title>
      </cc:Work>
    </rdf:RDF>
  </metadata>
  <g
     inkscape:label="Layer 1"
     inkscape:groupmode="layer"
     id="layer1"
     transform="translate(-113.35007,-85.583005)">
    <g
       transform="matrix(-0.26458333,0,0,0.26458333,122.41205,83.400193)"
       id="g4063">
      <path
         inkscape:connector-curvature="0"
         d="m 22,9 c -2.21,0 -4,1.79 -4,4 0,0.89 0.29,1.71 0.78,2.38 -1.95,1.12 -3.28,3.21 -3.28,5.62 0,2.03 0.94,3.84 2.41,5.03 -3,1.06 -7.41,5.55 -7.41,13.47 h 23 c 0,-7.92 -4.41,-12.41 -7.41,-13.47 1.47,-1.19 2.41,-3 2.41,-5.03 0,-2.41 -1.33,-4.5 -3.28,-5.62 C 25.71,14.71 26,13.89 26,13 26,10.79 24.21,9 22,9 Z"
         style="opacity:1;fill:#000000;fill-opacity:1;fill-rule:nonzero;stroke:#000000;stroke-width:1.5;stroke-linecap:round;stroke-linejoin:miter;stroke-miterlimit:4;stroke-dasharray:none;stroke-opacity:1"
         id="path4061" />
    </g>
  </g>
</svg>
